#!OML:ASF H:\Martial Arts Walks\Project 1\Capture day 1\Session 1\male.ASF
:FULLY-SPECIFIED
:DEGREES
829
root -4.32451 14.4621 12.1375 -143.117 62.7291 -148.023
lowerback 20.673 -0.482375 -7.1686
upperback 1.24973 -1.39253 6.30057
thorax -9.89496 -0.0611829 11.7016
lowerneck 9.14469 -18.1537 -18.1713
upperneck 0.715445 -26.4838 22.1086
head 4.20741 -13.6167 8.13798
rclavicle 2.22639e-014 -1.19271e-014
rhumerus -30.0982 11.9173 -59.5841
rradius 98.9589
rwrist 4.33099
rhand -27.6444 -46.6749
rfingers 7.12502
rthumb -1.04247 -76.6521
lclavicle 2.22639e-014 -1.19271e-014
lhumerus -41.462 -21.134 86.7718
lradius 101.256
lwrist 32.0248
lhand -3.93386 3.7411
lfingers 7.12502
lthumb 21.8175 32.5313
rfemur -38.7561 -13.0812 6.05553
rtibia 67.163
rfoot -0.395017 18.152
rtoes -12.3933
lfemur -51.8918 19.9752 -5.07472
ltibia 80.6256
lfoot -33.066 7.44972
ltoes -7.13052
830
root -4.27957 14.3574 12.2075 -144.262 62.7346 -149.017
lowerback 20.4606 -0.447904 -6.94982
upperback 1.18708 -1.29384 6.25233
thorax -9.88019 -0.0256835 11.4724
lowerneck 9.27134 -18.2558 -18.1629
upperneck 0.572358 -26.6147 22.1533
head 4.17687 -13.6904 8.14563
rclavicle 1.17283e-014 -4.53229e-014
rhumerus -30.3281 12.708 -59.9942
rradius 99.8889
rwrist 4.46294
rhand -27.6895 -47.1522
rfingers 7.12502
rthumb -1.08604 -77.1291
lclavicle 1.17283e-014 -4.53229e-014
lhumerus -42.0577 -21.1774 87.0363
lradius 101.644
lwrist 31.953
lhand -3.90638 3.71185
lfingers 7.12502
lthumb 21.8439 32.4989
rfemur -37.6823 -12.9092 6.12811
rtibia 67.083
rfoot -3.91074 16.0099
rtoes -13.6499
lfemur -52.2393 20.0592 -5.10967
ltibia 81.6278
lfoot -33.4739 7.33527
ltoes -7.59911
831
root -4.24373 14.2568 12.2844 -145.403 62.7704 -150.21
lowerback 20.2381 -0.543641 -6.92128
upperback 1.06527 -1.41091 6.25002
thorax -9.86715 -0.0822754 11.477
lowerneck 9.22077 -18.2235 -18.3795
upperneck 0.526662 -26.5795 22.184
head 4.19818 -13.6705 8.1787
rclavicle -4.67144e-014 -3.33958e-014
rhumerus -30.2039 13.8755 -60.4003
rradius 100.702
rwrist 4.33249
rhand -27.7021 -47.3232
rfingers 7.12502
rthumb -1.09817 -77.3002
lclavicle -4.67144e-014 -3.33958e-014
lhumerus -42.6706 -20.5705 87.3788
lradius 102.022
lwrist 31.9262
lhand -3.9795 3.78348
lfingers 7.12502
lthumb 21.7736 32.5787
rfemur -36.9302 -12.8302 6.04951
rtibia 67.3491
rfoot -7.10647 13.846
rtoes -15.2506
lfemur -52.8212 20.184 -5.32458
ltibia 82.5701
lfoot -33.7772 7.28134
ltoes -8.24779
832
root -4.21033 14.1646 12.3584 -146.432 62.7776 -151.297
lowerback 20.0285 -0.538459 -6.74285
upperback 0.934096 -1.37325 6.14695
thorax -9.91604 -0.0716083 11.2298
lowerneck 9.34856 -18.3258 -18.2119
upperneck 0.283452 -26.6817 22.248
head 4.11358 -13.7323 8.18413
rclavicle 1.31198e-014 4.77083e-015
rhumerus -30.317 14.6305 -60.9165
rradius 101.535
rwrist 4.09386
rhand -27.6292 -47.028
rfingers 7.12502
rthumb -1.02774 -77.0053
lclavicle 1.31198e-014 4.77083e-015
lhumerus -43.1842 -20.5396 87.5878
lradius 102.488
lwrist 32.2256
lhand -4.26374 3.93738
lfingers 7.12502
lthumb 21.5007 32.7641
rfemur -36.3687 -12.7737 6.00627
rtibia 67.7382
rfoot -10.8093 11.3835
rtoes -25.1351
lfemur -53.3832 20.2518 -5.49302
ltibia 83.4572
lfoot -34.0205 7.28783
ltoes -8.87823
833
root -4.17899 14.0716 12.4331 -147.284 62.7805 -152.201
lowerback 19.8567 -0.597159 -6.51213
upperback 0.806816 -1.40248 6.09429
thorax -9.9647 -0.0933122 11.0317
lowerneck 9.49468 -18.3447 -18.2835
upperneck 0.0345262 -26.7043 22.3921
head 4.05314 -13.7585 8.25397
rclavicle -2.26615e-014 -2.94201e-014
rhumerus -30.2664 15.5708 -61.3765
rradius 102.307
rwrist 3.7647
rhand -27.5958 -46.7515
rfingers 7.12502
rthumb -0.995539 -76.7289
lclavicle -2.26615e-014 -2.94201e-014
lhumerus -43.8532 -20.5268 87.9562
lradius 103.117
lwrist 32.8281
lhand -4.75898 4.14222
lfingers 7.12502
lthumb 21.025 33.0225
rfemur -35.9606 -12.8143 6.05827
rtibia 68.1433
rfoot -14.2314 9.12386
rtoes -28.8829
lfemur -53.9795 20.399 -5.58767
ltibia 84.3275
lfoot -34.239 7.21573
ltoes -9.38454
834
root -4.15087 13.9823 12.5069 -148.07 62.7919 -153.096
lowerback 19.693 -0.677728 -6.28898
upperback 0.663793 -1.46501 6.03506
thorax -10.0279 -0.130073 10.8415
lowerneck 9.64688 -18.3573 -18.2862
upperneck -0.211108 -26.7073 22.4717
head 3.96952 -13.7747 8.30249
rclavicle -2.127e-014 3.18055e-014
rhumerus -30.1395 16.5238 -61.7721
rradius 103.079
rwrist 3.41978
rhand -27.5351 -46.6922
rfingers 7.12502
rthumb -0.936943 -76.6699
lclavicle -2.127e-014 3.18055e-014
lhumerus -44.399 -20.2971 88.205
lradius 103.698
lwrist 33.4177
lhand -5.32107 4.12011
lfingers 7.12502
lthumb 20.4849 33.0594
rfemur -35.8034 -12.9222 6.11316
rtibia 68.4868
rfoot -17.1832 7.08351
rtoes -29.9143
lfemur -54.619 20.5727 -5.71963
ltibia 85.1582
lfoot -34.4426 7.1546
ltoes -9.81982
835
root -4.12062 13.8996 12.57 -148.609 62.8612 -153.739
lowerback 19.4394 -0.724856 -5.93642
upperback 0.532757 -1.45206 5.96403
thorax -10.048 -0.141031 10.5325
lowerneck 9.8029 -18.4011 -18.1889
upperneck -0.411038 -26.7423 22.4875
head 3.88202 -13.8049 8.3158
rclavicle -5.62561e-014 -3.49861e-014
rhumerus -30.064 17.2799 -62.1411
rradius 103.756
rwrist 3.32901
rhand -27.107 -45.9853
rfingers 7.12502
rthumb -0.523426 -75.9644
lclavicle -5.62561e-014 -3.49861e-014
lhumerus -44.8448 -20.1062 88.4083
lradius 104.177
lwrist 33.374
lhand -4.72 4.31325
lfingers 7.12502
lthumb 21.0624 33.1894
rfemur -35.7517 -13.1295 6.22524
rtibia 68.7454
rfoot -19.8794 4.84278
rtoes -31.9982
lfemur -55.1626 20.7641 -5.78891
ltibia 85.9537
lfoot -34.674 7.21132
ltoes -10.1683
836
root -4.10044 13.8143 12.6431 -149.084 62.8805 -154.499
lowerback 19.2169 -0.813141 -5.71398
upperback 0.327313 -1.52324 5.92828
thorax -10.1464 -0.178478 10.3738
lowerneck 9.8688 -18.4172 -18.1624
upperneck -0.44072 -26.757 22.4589
head 3.85786 -13.8151 8.31095
rclavicle 1.49089e-014 -5.1684e-015
rhumerus -29.9592 18.182 -62.4902
rradius 104.437
rwrist 3.38927
rhand -26.7382 -45.5733
rfingers 7.12502
rthumb -0.167261 -75.553
lclavicle 1.49089e-014 -5.1684e-015
lhumerus -45.2618 -19.8723 88.6294
lradius 104.724
lwrist 33.6446
lhand -4.68789 4.52253
lfingers 7.12502
lthumb 21.0933 33.3952
rfemur -35.9692 -13.5158 6.34786
rtibia 69.0714
rfoot -22.0548 2.70305
rtoes -33.7633
lfemur -55.9935 20.9122 -5.92908
ltibia 86.7438
lfoot -34.7986 7.24936
ltoes -10.5647
837
root -4.08005 13.7347 12.7072 -149.407 62.9351 -154.921
lowerback 19.0899 -0.898093 -5.31852
upperback 0.205557 -1.54934 5.89586
thorax -10.2179 -0.205733 10.1041
lowerneck 9.83254 -18.4289 -18.1417
upperneck -0.36233 -26.7681 22.4229
head 3.88082 -13.8146 8.28943
rclavicle -2.38542e-014 -1.90833e-014
rhumerus -29.7994 18.901 -62.8523
rradius 104.952
rwrist 3.89715
rhand -26.118 -44.9913
rfingers 7.12502
rthumb 0.431819 -74.9706
lclavicle -2.38542e-014 -1.90833e-014
lhumerus -45.5948 -19.5382 88.8823
lradius 105.126
lwrist 33.8376
lhand -4.76176 4.64412
lfingers 7.12502
lthumb 21.0223 33.5247
rfemur -36.044 -13.8749 6.54791
rtibia 69.383
rfoot -23.8777 0.345548
rtoes -35.975
lfemur -56.5648 21.0369 -5.88876
ltibia 87.5158
lfoot -34.9315 7.38353
ltoes -10.8955
838
root -4.06265 13.6533 12.7694 -149.432 62.9749 -155.145
lowerback 18.8754 -1.0026 -4.95527
upperback 0.055924 -1.5959 5.95006
thorax -10.2644 -0.238606 9.95673
lowerneck 9.86793 -18.3888 -18.1944
upperneck -0.372466 -26.717 22.4439
head 3.87248 -13.791 8.31424
rclavicle 3.48867e-014 -2.3059e-014
rhumerus -29.6232 19.7816 -63.0239
rradius 105.473
rwrist 4.47564
rhand -25.586 -44.5711
rfingers 7.12502
rthumb 0.945575 -74.5488
lclavicle 3.48867e-014 -2.3059e-014
lhumerus -45.8587 -19.0538 89.229
lradius 105.433
lwrist 33.8677
lhand -4.6177 4.86189
lfingers 7.12502
lthumb 21.1607 33.7271
rfemur -36.3387 -14.307 6.86939
rtibia 69.7688
rfoot -25.3856 -1.86313
rtoes -37.3431
lfemur -57.3138 21.2636 -5.78859
ltibia 88.3112
lfoot -35.0932 7.2879
ltoes -10.934
839
root -4.04803 13.5733 12.8273 -149.303 62.9922 -155.184
lowerback 18.6724 -1.09522 -4.46307
upperback -0.0787744 -1.598 6.00085
thorax -10.3132 -0.257161 9.71643
lowerneck 9.97856 -18.3565 -18.247
upperneck -0.455918 -26.6805 22.5508
head 3.84682 -13.7821 8.37245
rclavicle -1.27222e-014 -1.47101e-014
rhumerus -29.4553 20.5003 -63.2677
rradius 105.814
rwrist 5.17141
rhand -25.2566 -44.1084
rfingers 7.12502
rthumb 1.26376 -74.0844
lclavicle -1.27222e-014 -1.47101e-014
lhumerus -46.0679 -18.8059 89.5399
lradius 105.733
lwrist 33.9533
lhand -4.94758 4.90459
lfingers 7.12502
lthumb 20.8438 33.8049
rfemur -36.6872 -14.7491 7.25833
rtibia 70.2043
rfoot -26.6505 -3.55144
rtoes -37.5244
lfemur -58.0393 21.495 -5.62283
ltibia 89.0916
lfoot -35.2033 7.42118
ltoes -11.3122
840
root -4.03589 13.4965 12.8832 -149.203 63.0796 -155.257
lowerback 18.4796 -1.16019 -4.05241
upperback -0.192686 -1.58693 6.02523
thorax -10.345 -0.268397 9.49068
lowerneck 10.0602 -18.3612 -18.2101
upperneck -0.523126 -26.6795 22.6027
head 3.81711 -13.7878 8.39551
rclavicle 3.54831e-014 9.93923e-015
rhumerus -29.3309 21.2097 -63.4664
rradius 106.182
rwrist 5.78403
rhand -25.1791 -44.0842
rfingers 7.12502
rthumb 1.3386 -74.0597
lclavicle 3.54831e-014 9.93923e-015
lhumerus -46.1388 -18.4856 89.8782
lradius 105.895
lwrist 33.9822
lhand -4.87995 5.08678
lfingers 7.12502
lthumb 20.9088 33.9799
rfemur -37.1679 -15.1581 7.61886
rtibia 70.7403
rfoot -27.6698 -5.32533
rtoes -37.753
lfemur -58.7109 21.7911 -5.51507
ltibia 89.8287
lfoot -35.3283 7.53068
ltoes -11.735
841
root -4.02623 13.4229 12.9369 -149.269 63.2239 -155.46
lowerback 18.3175 -1.21294 -3.68778
upperback -0.25994 -1.57454 6.02403
thorax -10.3408 -0.28076 9.26193
lowerneck 10.0909 -18.3826 -18.1986
upperneck -0.575475 -26.7003 22.6223
head 3.80258 -13.8008 8.40154
rclavicle 3.23025e-015 1.11319e-014
rhumerus -29.139 21.8869 -63.634
rradius 106.474
rwrist 6.20855
rhand -25.2011 -44.0739
rfingers 7.12502
rthumb 1.31739 -74.0495
lclavicle 3.23025e-015 1.11319e-014
lhumerus -46.1301 -18.3249 90.1785
lradius 106.078
lwrist 34.1163
lhand -4.89897 5.2117
lfingers 7.12502
lthumb 20.8905 34.1069
rfemur -37.7075 -15.6254 7.86908
rtibia 71.3852
rfoot -28.4854 -6.80481
rtoes -37.8136
lfemur -59.2763 22.0333 -5.46786
ltibia 90.5009
lfoot -35.4748 7.48738
ltoes -11.8102
